<svg xmlns="http://www.w3.org/2000/svg"  viewBox="0 0 100 100" width="400px" height="400px"><path fill="#ead032" d="M50,50H12.826C11.818,50,11,49.182,11,48.174l0,0C11,37.584,19.584,29,30.174,29h0.652	C41.416,29,50,37.584,50,48.174V50z"/><path fill="#e85654" d="M50,50V12.826C50,11.818,50.818,11,51.826,11l0,0C62.416,11,71,19.584,71,30.174v0.652	C71,41.416,62.416,50,51.826,50H50z"/><path fill="#40a6dd" d="M50,50h37.174C88.182,50,89,50.818,89,51.826l0,0C89,62.416,80.416,71,69.826,71h-0.652	C58.584,71,50,62.416,50,51.826V50z"/><path fill="#8cc78c" d="M50,50v37.174C50,88.182,49.182,89,48.174,89l0,0C37.584,89,29,80.416,29,69.826v-0.652	C29,58.584,37.584,50,48.174,50H50z"/><path fill="#1f212b" d="M17.787,39.418c-0.458,0.646-0.867,1.33-1.216,2.035c-0.229,0.462-0.438,0.944-0.622,1.434 c-0.097,0.259,0.034,0.547,0.293,0.644c0.058,0.021,0.117,0.032,0.175,0.032c0.203,0,0.393-0.124,0.468-0.325 c0.171-0.458,0.367-0.908,0.581-1.34c0.326-0.659,0.708-1.298,1.135-1.901c0.16-0.225,0.107-0.537-0.119-0.697 C18.258,39.139,17.947,39.192,17.787,39.418z"/><path fill="#1f212b" d="M32.164,33.059c-0.275-0.022-0.517,0.18-0.542,0.454c-0.024,0.275,0.179,0.518,0.454,0.542 c6.115,0.537,11.2,5.001,12.565,10.945H36.5c-0.276,0-0.5,0.224-0.5,0.5s0.224,0.5,0.5,0.5h8.756c0.148,0,0.29-0.066,0.384-0.18 c0.095-0.114,0.134-0.265,0.107-0.411C44.512,38.731,38.926,33.653,32.164,33.059z"/><path fill="#1f212b" d="M26.93,33.349c-2.086,0.457-4.019,1.333-5.745,2.607c-0.222,0.164-0.27,0.477-0.105,0.699 c0.098,0.133,0.25,0.203,0.403,0.203c0.103,0,0.207-0.032,0.296-0.098c1.612-1.189,3.417-2.009,5.365-2.435 c0.27-0.059,0.44-0.325,0.381-0.595C27.466,33.46,27.198,33.291,26.93,33.349z"/><path fill="#1f212b" d="M63.253,39.203c-1.433,1.948-3.346,3.507-5.531,4.511c-0.251,0.115-0.36,0.412-0.245,0.663 c0.084,0.184,0.265,0.292,0.454,0.292c0.07,0,0.141-0.015,0.209-0.045c2.339-1.074,4.386-2.744,5.918-4.827 c0.164-0.223,0.116-0.536-0.106-0.699C63.73,38.935,63.416,38.981,63.253,39.203z"/><path fill="#1f212b" d="M65.164,36.962c0.063,0.026,0.129,0.039,0.194,0.039c0.195,0,0.38-0.115,0.461-0.306 c0.42-0.998,0.732-2.042,0.929-3.104c0.05-0.271-0.13-0.532-0.401-0.583c-0.276-0.052-0.532,0.129-0.583,0.401 c-0.183,0.991-0.474,1.966-0.866,2.896C64.79,36.561,64.91,36.854,65.164,36.962z"/><path fill="#1f212b" d="M66,30.174v0.327c0,0.276,0.224,0.5,0.5,0.5s0.5-0.224,0.5-0.5v-0.327 c0-2.032-0.396-4.006-1.18-5.867c-0.106-0.254-0.402-0.372-0.654-0.267c-0.255,0.107-0.375,0.4-0.268,0.655 C65.63,26.432,66,28.276,66,30.174z"/><path fill="#1f212b" d="M54.409,16.236c3.549,0.656,6.689,2.631,8.844,5.562c0.099,0.133,0.25,0.204,0.403,0.204 c0.104,0,0.207-0.032,0.296-0.097c0.223-0.164,0.271-0.477,0.107-0.699c-2.306-3.136-5.669-5.25-9.469-5.952 c-0.269-0.055-0.532,0.129-0.582,0.401C53.958,15.925,54.138,16.185,54.409,16.236z"/><path fill="#1f212b" d="M87.174,49H60.526C67.3,45.743,72,38.832,72,30.826v-0.652C72,19.05,62.95,10,51.826,10 C50.268,10,49,11.267,49,12.826v26.649C45.743,32.7,38.832,28,30.826,28h-0.652C19.05,28,10,37.05,10,48.174 C10,49.732,11.268,51,12.826,51h26.648C32.7,54.257,28,61.168,28,69.174v0.652C28,80.951,37.05,90,48.174,90 C49.732,90,51,88.733,51,87.174V60.526C54.257,67.301,61.168,72,69.174,72h0.652C80.95,72,90,62.951,90,51.826 C90,50.268,88.732,49,87.174,49z M51,12.826C51,12.37,51.371,12,51.826,12C61.848,12,70,20.153,70,30.174v0.652 C70,40.847,61.848,49,51.826,49H51v-0.826V12.826z M12.826,49C12.371,49,12,48.629,12,48.174C12,38.153,20.153,30,30.174,30h0.652 C40.847,30,49,38.153,49,48.174V49h-0.826H12.826z M49,87.174C49,87.629,48.629,88,48.174,88C38.153,88,30,79.848,30,69.826v-0.652 C30,59.153,38.153,51,48.174,51H49v0.827V87.174z M69.826,70h-0.652C59.152,70,51,61.848,51,51.826V51h0.826h35.348 C87.629,51,88,51.37,88,51.826C88,61.848,79.848,70,69.826,70z"/><path fill="#1f212b" d="M61.5,54h-4.492c-0.276,0-0.5,0.224-0.5,0.5s0.224,0.5,0.5,0.5H61.5c0.276,0,0.5-0.224,0.5-0.5 S61.776,54,61.5,54z"/><path fill="#1f212b" d="M84.256,54H76.5c-0.276,0-0.5,0.224-0.5,0.5s0.224,0.5,0.5,0.5h7.142 c-0.618,2.701-2.006,5.138-4.036,7.076c-0.199,0.19-0.207,0.507-0.016,0.707c0.098,0.103,0.229,0.154,0.361,0.154 c0.124,0,0.248-0.046,0.346-0.139c2.329-2.225,3.869-5.063,4.45-8.208c0.027-0.146-0.012-0.297-0.106-0.41 C84.545,54.067,84.404,54,84.256,54z"/><path fill="#1f212b" d="M72.5,54h-2c-0.276,0-0.5,0.224-0.5,0.5s0.224,0.5,0.5,0.5h2c0.276,0,0.5-0.224,0.5-0.5 S72.776,54,72.5,54z"/><path fill="#1f212b" d="M67.5,54h-3c-0.276,0-0.5,0.224-0.5,0.5s0.224,0.5,0.5,0.5h3c0.276,0,0.5-0.224,0.5-0.5 S67.776,54,67.5,54z"/><path fill="#1f212b" d="M34,69.826v-0.652c0-1.528,0.244-3.034,0.724-4.476c0.087-0.262-0.054-0.545-0.316-0.633 c-0.263-0.089-0.545,0.055-0.632,0.316C33.261,65.926,33,67.538,33,69.174v0.652c0,1.183,0.138,2.364,0.411,3.511 c0.054,0.23,0.26,0.385,0.486,0.385c0.038,0,0.077-0.004,0.116-0.014c0.269-0.063,0.435-0.333,0.371-0.602 C34.129,72.034,34,70.931,34,69.826z"/><path fill="#1f212b" d="M35.355,75.874c-0.118-0.25-0.415-0.354-0.666-0.238c-0.25,0.119-0.356,0.417-0.237,0.666 c0.148,0.313,0.306,0.619,0.475,0.919c0.092,0.164,0.261,0.256,0.437,0.256c0.083,0,0.167-0.021,0.244-0.063 c0.241-0.136,0.327-0.44,0.191-0.681C35.642,76.452,35.494,76.165,35.355,75.874z"/><path fill="#1f212b" d="M41.089,82.099c-1.358-0.787-2.573-1.79-3.609-2.98c-0.181-0.208-0.497-0.231-0.705-0.049 c-0.208,0.181-0.23,0.497-0.049,0.705c1.108,1.274,2.408,2.348,3.862,3.189c0.079,0.046,0.165,0.067,0.25,0.067 c0.172,0,0.34-0.089,0.433-0.249C41.41,82.543,41.329,82.238,41.089,82.099z"/></svg>